<?xml version="1.0" standalone="no"?>
<!DOCTYPE svg PUBLIC "-//W3C//DTD SVG 20010904//EN"
 "http://www.w3.org/TR/2001/REC-SVG-20010904/DTD/svg10.dtd">
<svg version="1.0" xmlns="http://www.w3.org/2000/svg"
 width="570.000000pt" height="427.000000pt" viewBox="0 0 570.000000 427.000000"
 preserveAspectRatio="xMidYMid meet">
<metadata>
Created by potrace 1.15, written by Peter Selinger 2001-2017
</metadata>
<g transform="translate(0.000000,427.000000) scale(0.100000,-0.100000)"
fill="#000000" stroke="none">
<path d="M2208 4218 c-41 -30 -65 -58 -83 -95 -14 -29 -102 -247 -196 -485
-94 -238 -174 -439 -178 -445 -4 -8 -23 12 -51 53 -24 36 -46 60 -48 54 -7
-20 29 -101 61 -137 l31 -36 -29 6 c-91 18 -105 19 -106 6 -3 -54 4 -121 18
-162 14 -38 15 -54 6 -77 -10 -26 -9 -32 7 -40 28 -15 46 -12 77 13 40 34 90
49 114 36 17 -9 19 -18 14 -67 -3 -31 -17 -178 -32 -327 -43 -431 -33 -672 37
-950 15 -60 38 -137 51 -170 21 -56 23 -58 32 -35 38 94 107 228 182 356 116
196 449 692 453 674 1 -8 -18 -121 -43 -250 -25 -129 -61 -316 -79 -416 -34
-182 -122 -539 -198 -802 -31 -108 -38 -146 -29 -151 6 -4 143 -16 304 -26
256 -16 327 -16 567 -6 318 13 373 18 367 35 -18 47 -94 323 -127 459 -87 361
-160 887 -160 1150 l0 58 32 -18 c18 -10 76 -61 129 -113 178 -176 325 -439
495 -884 32 -85 39 -96 46 -75 4 13 28 146 53 294 l46 270 9 440 c9 423 15
535 29 535 3 0 32 -8 65 -18 l58 -17 34 -115 c124 -413 465 -1416 512 -1505
l16 -30 9 40 c4 22 6 60 3 84 -12 92 -196 710 -356 1195 -109 332 -119 369
-126 461 -6 99 -7 101 -38 121 -24 16 -35 34 -47 80 -9 32 -51 178 -93 324
-43 146 -78 283 -79 305 -1 28 12 69 41 134 23 52 40 96 38 98 -2 2 -29 -6
-60 -18 -47 -17 -62 -19 -88 -10 -43 15 -143 13 -207 -3 -29 -8 -55 -17 -58
-19 -2 -3 28 -12 67 -22 38 -9 70 -20 70 -24 0 -4 -26 -20 -58 -35 -32 -15
-68 -35 -80 -45 l-23 -17 20 -47 c22 -51 27 -54 50 -33 34 30 116 66 151 66
36 0 38 -2 49 -42 51 -192 180 -722 177 -726 -3 -2 -67 -31 -142 -63 -76 -33
-174 -79 -219 -103 -90 -49 -137 -62 -278 -75 -104 -10 -112 -9 -279 41 -77
24 -78 24 -58 43 19 20 19 20 -5 88 -14 37 -25 73 -25 79 0 8 40 9 138 5 159
-7 263 -21 365 -47 l72 -19 -45 40 c-151 134 -216 170 -368 204 -58 14 -109
28 -113 32 -14 15 -39 104 -39 138 0 59 30 126 109 245 108 162 117 204 71
324 l-11 29 -20 -39 c-59 -112 -69 -123 -185 -205 -63 -46 -127 -97 -142 -114
-25 -27 -59 -97 -158 -324 -26 -60 -34 -68 -110 -117 -195 -126 -309 -173
-418 -175 l-61 -1 40 -18 c69 -32 136 -33 297 -6 162 29 208 32 208 15 0 -6
-14 -36 -32 -67 -34 -60 -37 -57 32 -36 11 4 20 2 20 -4 0 -25 -58 -76 -123
-108 l-69 -35 -152 27 c-207 37 -213 39 -281 80 -33 21 -96 59 -140 85 -109
64 -152 109 -107 109 37 0 122 31 149 55 l28 24 -79 -20 c-43 -11 -80 -19 -81
-17 -2 2 60 138 137 303 301 648 301 646 299 695 -1 25 -5 62 -9 83 l-7 39
-57 -44z m705 -1293 c57 0 58 -1 97 -53 22 -29 40 -54 40 -57 0 -2 -16 5 -35
16 -19 12 -56 27 -81 35 -39 12 -51 11 -79 0 -18 -8 -36 -12 -39 -9 -3 3 -22
-4 -42 -16 -20 -12 -38 -20 -40 -19 -2 2 18 30 43 61 34 44 50 56 62 51 9 -4
42 -8 74 -9z m-29 -135 c5 0 24 11 42 25 18 14 37 25 42 25 15 0 122 -171 122
-196 0 -3 -11 1 -25 10 -14 9 -25 15 -25 13 0 -2 9 -46 20 -98 11 -52 20 -106
20 -121 0 -26 -2 -27 -26 -18 -23 9 -25 8 -19 -7 3 -10 9 -81 11 -158 l5 -140
-34 39 -35 40 -10 -40 c-6 -21 -16 -64 -22 -94 -7 -30 -16 -62 -21 -70 -9 -17
-8 -17 -26 50 l-9 35 -13 -40 c-23 -72 -22 -72 -36 -34 -7 20 -18 62 -25 94
l-12 57 -29 -28 c-26 -25 -29 -26 -30 -8 -1 10 -4 80 -8 154 l-6 135 -28 -53
c-16 -30 -30 -52 -33 -50 -5 6 43 295 52 311 4 7 -5 1 -21 -13 l-27 -25 7 25
c11 41 82 183 104 212 l21 27 32 -30 c18 -16 37 -29 42 -29z"/>
<path d="M2450 661 c-5 -11 -10 -31 -10 -44 l0 -25 116 -1 116 -2 -7 38 c-4
21 -12 41 -18 45 -7 4 -51 8 -99 8 -76 0 -89 -2 -98 -19z"/>
<path d="M3057 663 c-3 -5 -8 -23 -12 -40 l-7 -33 121 0 c131 0 132 1 111 54
-9 26 -11 26 -109 26 -55 0 -102 -3 -104 -7z"/>
<path d="M5380 474 c-13 -4 -15 -23 -13 -112 5 -159 12 -212 29 -212 8 0 14 6
14 13 1 6 11 81 24 165 l23 152 -31 -1 c-17 -1 -38 -3 -46 -5z"/>
<path d="M234 459 c-2 -4 4 -10 14 -13 21 -7 23 -11 82 -140 35 -77 40 -99 41
-164 1 -66 -2 -78 -20 -93 -11 -10 -21 -19 -21 -22 0 -2 32 -4 70 -4 39 0 70
4 70 8 0 5 -7 9 -15 9 -24 0 -35 35 -35 111 0 62 5 83 40 160 22 49 41 95 43
102 1 6 13 19 25 28 30 21 20 27 -38 23 -58 -3 -59 -3 -32 -14 31 -13 28 -42
-13 -120 l-33 -65 -36 75 c-36 75 -44 110 -26 110 6 0 10 3 10 8 0 9 -120 10
-126 1z"/>
<path d="M880 461 c0 -5 9 -12 19 -16 27 -8 32 -35 31 -185 -1 -192 23 -240
120 -240 38 0 51 5 71 28 49 55 53 70 58 236 4 115 10 161 19 164 29 9 8 22
-38 22 -27 0 -50 -2 -50 -5 0 -2 12 -16 26 -30 l27 -27 -5 -137 c-4 -114 -8
-144 -24 -172 -36 -62 -109 -65 -141 -6 -15 27 -18 57 -18 183 0 135 2 154 19
173 l19 21 -66 0 c-37 0 -67 -4 -67 -9z"/>
<path d="M1570 451 c0 -5 9 -12 19 -16 29 -9 32 -27 32 -195 0 -163 -3 -185
-27 -194 -32 -12 0 -26 62 -26 66 0 84 13 40 30 -29 11 -39 48 -34 130 l3 55
78 3 77 3 0 -89 c0 -67 -4 -93 -15 -102 -8 -7 -15 -16 -15 -21 0 -10 123 -12
133 -2 4 3 -7 14 -23 24 -21 13 -30 27 -30 46 -1 16 -1 93 -1 172 1 135 2 146
23 168 l21 23 -66 0 c-65 0 -88 -12 -47 -25 18 -6 20 -15 20 -86 l0 -80 -77 3
-78 3 -3 67 c-2 57 0 70 18 88 11 11 20 22 20 25 0 3 -29 5 -65 5 -36 0 -65
-4 -65 -9z"/>
<path d="M2190 451 c0 -5 14 -11 30 -15 17 -3 33 -14 37 -23 4 -10 11 -21 17
-25 7 -5 7 -8 -1 -8 -10 0 -13 -38 -13 -155 0 -154 0 -155 -25 -171 -14 -9
-25 -20 -25 -24 0 -11 271 -10 292 1 24 13 58 68 58 94 -1 17 -4 16 -28 -11
-34 -40 -56 -51 -118 -59 -44 -6 -52 -4 -77 19 -15 14 -23 26 -18 26 7 0 11
52 11 151 0 150 7 189 35 189 8 0 15 5 15 10 0 6 -38 10 -95 10 -52 0 -95 -4
-95 -9z"/>
<path d="M2540 451 c0 -5 11 -12 25 -15 14 -4 29 -14 32 -24 4 -9 11 -20 17
-24 7 -5 7 -8 -1 -8 -10 0 -13 -39 -13 -160 l0 -160 -26 -10 c-49 -19 -14 -27
121 -28 134 -2 135 -1 165 26 17 15 33 42 37 62 l6 35 -34 -37 c-55 -57 -176
-77 -194 -30 -8 20 -7 316 1 337 3 8 14 17 25 20 44 14 13 25 -71 25 -49 0
-90 -4 -90 -9z"/>
<path d="M2990 451 c0 -5 9 -13 20 -16 11 -3 20 -10 20 -15 0 -5 7 -16 16 -24
8 -9 11 -16 5 -16 -7 0 -11 -50 -11 -149 0 -135 -2 -151 -21 -175 -11 -14 -19
-27 -17 -27 2 -1 27 -3 55 -4 58 -4 79 10 39 24 -20 8 -25 18 -30 63 -3 29 -3
96 1 148 l8 95 110 -167 c61 -92 113 -168 118 -168 12 0 8 68 -5 73 -10 4 -10
6 0 6 9 1 12 39 12 156 0 142 2 157 20 175 11 11 20 22 20 25 0 3 -25 5 -55 5
-58 0 -68 -7 -35 -27 26 -17 32 -57 28 -188 l-3 -110 -109 163 -108 162 -39 0
c-22 0 -39 -4 -39 -9z"/>
<path d="M3745 451 c3 -5 2 -12 -3 -15 -4 -2 -9 -24 -10 -48 -2 -40 -1 -42 13
-24 8 11 15 26 15 33 0 17 41 33 86 33 l34 0 1 -97 c1 -54 1 -101 0 -105 0 -5
4 -8 11 -8 9 0 9 -3 0 -12 -7 -7 -12 -41 -12 -81 0 -67 -1 -68 -30 -78 -54
-19 -32 -29 65 -29 98 0 122 12 66 31 -18 6 -32 20 -35 35 -11 41 -5 318 6
332 25 30 128 3 128 -34 0 -8 4 -14 9 -14 8 0 9 23 2 78 -1 9 -44 12 -177 12
-105 0 -173 -4 -169 -9z"/>
<path d="M4190 451 c0 -5 10 -11 23 -15 37 -9 42 -40 37 -209 -4 -136 -8 -160
-22 -171 -35 -26 -20 -36 52 -36 71 0 91 13 46 29 -13 5 -25 15 -27 23 -2 7
-2 92 1 188 5 161 6 175 24 178 76 15 121 -135 55 -182 -12 -8 -30 -13 -41
-11 -12 3 -18 -1 -15 -8 2 -7 18 -13 36 -15 25 -3 39 4 66 31 30 30 35 42 35
81 0 57 -20 98 -55 114 -30 14 -215 16 -215 3z"/>
<path d="M1420 442 c-62 -8 -111 -46 -95 -72 3 -6 1 -10 -4 -10 -6 0 -11 -12
-11 -26 0 -50 38 -94 100 -115 125 -42 161 -100 97 -159 -48 -45 -160 -8 -173
58 -6 33 -19 49 -27 35 -3 -5 0 -33 7 -63 11 -49 16 -56 47 -67 48 -17 92 -16
138 3 51 20 74 56 75 116 1 68 -24 96 -119 134 -104 42 -130 79 -85 124 41 41
129 18 166 -44 l19 -31 3 39 c2 24 -2 42 -10 47 -10 7 -10 9 0 9 6 0 12 5 12
11 0 6 -8 8 -19 4 -10 -3 -36 -2 -57 2 -22 5 -50 7 -64 5z"/>
<path d="M4809 425 c-28 -15 -43 -41 -33 -56 3 -5 0 -9 -5 -9 -6 0 -11 -13
-11 -30 0 -39 50 -95 98 -111 106 -34 144 -75 122 -130 -15 -36 -50 -53 -99
-46 -38 5 -86 32 -88 50 -3 23 -24 69 -29 64 -4 -3 -3 -31 1 -62 7 -63 19 -73
94 -82 171 -20 239 183 83 248 -26 11 -64 27 -85 36 -43 19 -61 44 -52 73 23
72 141 65 180 -10 9 -17 18 -30 21 -30 2 0 4 24 3 53 l-2 52 -86 2 c-60 2 -94
-2 -112 -12z"/>
<path d="M5088 410 c-25 -26 -29 -34 -17 -41 10 -6 10 -9 2 -9 -8 0 -13 -14
-13 -36 0 -49 37 -84 128 -118 40 -15 77 -36 82 -46 19 -35 12 -77 -16 -99
-58 -46 -152 -12 -174 62 -18 62 -34 32 -18 -34 13 -51 17 -55 56 -68 65 -20
128 -7 170 35 33 33 34 37 30 96 -4 53 -8 64 -34 84 -16 13 -56 33 -88 44 -70
23 -96 44 -96 77 0 62 92 85 149 38 16 -14 33 -35 36 -45 11 -33 25 -22 25 19
0 22 -5 42 -12 44 -10 4 -10 6 0 6 6 1 12 4 12 9 0 4 -43 8 -95 10 -95 3 -95
3 -127 -28z"/>
<path d="M621 417 c-73 -23 -131 -117 -117 -189 25 -134 205 -191 324 -102 30
24 64 74 61 91 -1 4 1 16 6 26 12 28 -13 97 -49 133 -50 50 -144 67 -225 41z
m135 -23 c49 -24 89 -108 80 -172 -8 -58 -32 -93 -79 -111 -70 -26 -144 8
-178 83 -35 76 -16 171 40 201 35 19 95 19 137 -1z"/>
<path d="M2001 305 c-34 -69 -61 -130 -61 -135 0 -4 -13 -22 -30 -40 -16 -18
-30 -33 -30 -34 0 -4 111 1 115 6 3 3 -6 8 -20 12 -29 7 -30 14 -10 62 l14 35
67 -3 66 -3 16 -39 c14 -36 14 -40 -1 -51 -10 -7 -17 -14 -17 -16 0 -2 29 -4
65 -4 64 0 83 8 47 19 -10 4 -26 22 -35 41 -9 19 -21 35 -27 35 -5 0 -7 6 -4
13 4 11 -77 211 -91 225 -2 2 -31 -53 -64 -123z"/>
<path d="M3463 419 c-41 -12 -99 -71 -114 -116 -14 -44 -5 -107 22 -145 58
-81 210 -98 296 -32 31 24 65 74 62 91 -1 4 1 15 5 24 13 29 -14 102 -50 136
-52 49 -139 66 -221 42z m157 -44 c60 -57 75 -157 34 -220 -24 -37 -79 -58
-130 -50 -123 18 -171 231 -65 291 43 24 125 13 161 -21z"/>
<path d="M4545 397 c-40 -97 -128 -264 -146 -279 -12 -10 -20 -18 -18 -18 56
-6 119 -5 119 2 0 4 -6 8 -14 8 -29 0 -38 26 -22 65 l15 36 68 -3 67 -3 15
-39 c14 -36 13 -40 -4 -52 -10 -8 -17 -14 -14 -15 2 0 32 -1 67 -2 60 -2 80 6
45 17 -21 7 -45 53 -103 196 -24 58 -47 109 -51 114 -5 6 -15 -6 -24 -27z"/>
</g>
</svg>
